<svg xmlns="http://www.w3.org/2000/svg" viewBox="0 0 128 128"><g><g><linearGradient id="SVGID_1_KOTLIN" x1="-4.046" x2="13.694" y1="59.126" y2="39.749" gradientUnits="userSpaceOnUse"><stop offset="0" style="stop-color:#1c93c1"/><stop offset=".163" style="stop-color:#2391c0"/><stop offset=".404" style="stop-color:#378bbe"/><stop offset=".696" style="stop-color:#587eb9"/><stop offset=".995" style="stop-color:#7f6cb1"/></linearGradient><path fill="url(#SVGID_1_KOTLIN)" d="M 0,42.6 22.2,42.6 0,64.5 z"/><linearGradient id="SVGID_2_KOTLIN" x1="1.085" x2="30.957" y1="74.46" y2="43.285" gradientUnits="userSpaceOnUse"><stop offset="0" style="stop-color:#c757a7"/><stop offset=".046" style="stop-color:#ca5a9e"/><stop offset=".241" style="stop-color:#d66779"/><stop offset=".428" style="stop-color:#e17357"/><stop offset=".6" style="stop-color:#e97c3a"/><stop offset=".756" style="stop-color:#ef8324"/><stop offset=".888" style="stop-color:#f28817"/><stop offset=".982" style="stop-color:#f48912"/></linearGradient><path fill="url(#SVGID_2_KOTLIN)" d="M 0,85.4 42.8,42.6 21.6,42.6 0,63.9 z"/><linearGradient id="SVGID_3_KOTLIN" x1="14.38" x2="31.487" y1="92.496" y2="74.781" gradientUnits="userSpaceOnUse"><stop offset="0" style="stop-color:#1c93c1"/><stop offset=".216" style="stop-color:#2d8ebf"/><stop offset=".64" style="stop-color:#587eb9"/><stop offset=".995" style="stop-color:#7f6cb1"/></linearGradient><path fill="url(#SVGID_3_KOTLIN)" d="M 42.4,85.4 21.2,64.2 0,85.4 z"/></g><g><path d="M 50,75.6 50,52.8 55.1,52.8 55.1,62.6 64.4,52.8 70.2,52.8 60.9,62.6 70.2,75.6 64.4,75.6 57.6,66.1 55.1,68.6 55.1,75.6 z"/><path d="M77.5,58.2c-5.1,0-9.2,3.9-9.2,8.7c0,4.8,4.1,8.7,9.2,8.7c5.1,0,9.2-3.9,9.2-8.7C86.7,62.1,82.6,58.2,77.5,58.2z M77.5,71.8c-2.7,0-4.9-2.2-4.9-4.9c0-2.7,2.2-4.9,4.9-4.9s4.9,2.2,4.9,4.9C82.4,69.6,80.2,71.8,77.5,71.8z"/><path d="M87.9,53.8H93v4.5h4v4.2h-4v8.2c0,0,1.5,2.1,4,0v4.5c0,0-4,2-7.5,0c0,0-1.6-1.6-1.6-3.5c0-1.8,0-9.2,0-9.2h-2v-4.4l2,0.1 V53.8z"/><rect width="4.9" height="23.7" x="98.5" y="51.9"/><rect width="5" height="4.2" x="105.2" y="51.9"/><rect width="5" height="17.3" x="105.2" y="58.3"/><path d="M111.9,58.3h5.1V61c0,0,4.7-7.2,10.4,0l0.5,1.5v13.1h-5V65c0,0-2.8-5.3-5.9,0v10.6h-5.1V58.3z"/></g></g></svg>